<svg width="138" height="26" viewBox="0 0 138 26" fill="none" xmlns="http://www.w3.org/2000/svg">
<path d="M0.75 1.28H12.63L15.35 14.09H15.5L18.1 1.28H29.95V24.7H22.77V6.3H22.59L18.46 24.7H11.79L7.78 6.3H7.57V24.7H0.75V1.28Z" fill="#F58220"/>
<path d="M58.37 12.99C58.37 20.45 54.09 25.1 46.7 25.1C39.31 25.1 35.03 20.45 35.03 12.99C35.03 5.53 39.31 0.879999 46.7 0.879999C54.09 0.879999 58.37 5.53 58.37 12.99ZM43.47 12.99C43.47 15.43 43.68 19.48 46.7 19.48C49.72 19.48 49.93 15.43 49.93 12.99C49.93 10.55 49.72 6.5 46.7 6.5C43.68 6.5 43.47 10.55 43.47 12.99Z" fill="#F58220"/>
<path d="M82.99 1.28V8.2H75.93V24.7H67.91V8.21H60.85V1.29H82.99V1.28Z" fill="#F58220"/>
<path d="M95.79 1.28V14.66H95.91L101.21 1.28H110.57V24.7H102.55V11.59H102.43L97.13 24.7H87.77V1.28H95.79Z" fill="#F58220"/>
<path d="M129.15 1.28C135.7 1.28 136.9 5.19 136.9 7.37C136.9 10.05 135.25 12.22 132.65 12.76V12.89C134.74 13.22 137.38 14.76 137.38 18.44C137.38 24.36 131.4 24.7 128.73 24.7H116.55V1.28H129.15ZM124.16 10.55H126.04C128.79 10.55 129.06 8.94 129.06 8.27C129.06 7.3 128.43 6.03 126.22 6.03H124.16V10.55ZM124.16 19.95H126.19C128.76 19.95 129.18 18.38 129.18 17.54C129.18 15.16 126.7 15.16 126.01 15.16H124.16V19.95Z" fill="#F58220"/>
</svg>
