<svg width="53" height="58" viewBox="0 0 53 58" fill="none" xmlns="http://www.w3.org/2000/svg">
<path d="M0 32V34.38H14.56L9.93 42.69L17.44 47.33C17.44 47.33 27 35.13 27 29.6V29.21C27 23.68 17.44 11.48 17.44 11.48L9.93 16.12L14.56 24.43H0V26.81V32Z" fill="#F58220"/>
<path d="M47.54 54.09L49.6 52.9L42.32 40.29L51.83 40.14L52.1 31.32C52.1 31.32 36.75 29.14 31.96 31.9L31.62 32.1C26.83 34.87 21.05 49.25 21.05 49.25L28.83 53.43L33.72 45.27L41 57.88L43.06 56.69L47.54 54.09Z" fill="#F58220"/>
<path d="M42.98 1.19L40.92 0L33.64 12.61L28.75 4.45L20.97 8.63C20.97 8.63 26.76 23.01 31.55 25.78L31.89 25.98C36.68 28.75 52.03 26.56 52.03 26.56L51.76 17.74L42.25 17.59L49.53 4.98L47.47 3.79L42.98 1.19Z" fill="#F58220"/>
</svg>
